<svg width="20" height="21" viewBox="0 0 20 21" fill="none" xmlns="http://www.w3.org/2000/svg">
<path d="M19.66 8.24971L18 6.73971L17.14 5.99971L10.66 0.249711C10.2825 -0.0819349 9.7175 -0.0819349 9.34 0.249711L2.86 5.99971L2 6.73971L0.339997 8.24971C-0.0460871 8.62055 -0.0716495 9.22966 0.282006 9.63154C0.635662 10.0334 1.24308 10.0855 1.66 9.74971L2 9.44971V17.9997C2 19.6566 3.34314 20.9997 5 20.9997H7V14.9997C7 13.3429 8.34314 11.9997 10 11.9997C11.6569 11.9997 13 13.3429 13 14.9997V20.9997H15C16.6569 20.9997 18 19.6566 18 17.9997V9.44971L18.34 9.74971C18.7544 10.1137 19.3852 10.0734 19.75 9.65971C20.114 9.24531 20.0737 8.61447 19.66 8.24971Z" fill="#A75AFF"/>
</svg>
