<svg width="24" height="24" viewBox="0 0 24 24" fill="none" xmlns="http://www.w3.org/2000/svg">
<path d="M20.93 5.62001C20.4319 5.21746 19.8105 4.99855 19.17 5.00001H4.83001C3.26932 5.00549 2.0055 6.26932 2.00001 7.83001V8.50001C1.9963 9.87444 2.80416 11.1215 4.06001 11.68C4.51016 11.8927 5.00216 12.002 5.50001 12H6.50001C7.44344 12.0044 8.34729 11.6212 9.00001 10.94C9.65273 11.6212 10.5566 12.0044 11.5 12H12.5C13.4434 12.0044 14.3473 11.6212 15 10.94C15.6527 11.6212 16.5566 12.0044 17.5 12H18.5C18.9979 12.002 19.4899 11.8927 19.94 11.68C21.1959 11.1215 22.0037 9.87444 22 8.50001V7.83001C21.9996 6.96858 21.6055 6.15458 20.93 5.62001Z" fill="#A75AFF"/>
<path d="M17.5 13.0002C16.6088 13.0065 15.7369 12.7414 15 12.2402C14.2631 12.7414 13.3912 13.0065 12.5 13.0002H11.5C10.6088 13.0065 9.73688 12.7414 9 12.2402C8.26312 12.7414 7.39116 13.0065 6.5 13.0002H5.5C4.9878 13.0016 4.47959 12.9101 4 12.7302V19.0002C4 20.6571 5.34315 22.0002 7 22.0002H9V17.0002C9 15.3434 10.3431 14.0002 12 14.0002C13.6569 14.0002 15 15.3434 15 17.0002V22.0002H17C18.6569 22.0002 20 20.6571 20 19.0002V12.7302C19.5211 12.9127 19.0124 13.0043 18.5 13.0002H17.5Z" fill="#A75AFF"/>
<path d="M19.17 3.99983C19.6102 4.00061 20.0468 4.07845 20.46 4.22983L20.4 4.04983C19.9748 2.84717 18.8356 2.04491 17.56 2.04983H6.44004C5.16445 2.04491 4.02523 2.84717 3.60004 4.04983L3.54004 4.22983C3.95332 4.07845 4.38991 4.00061 4.83004 3.99983H19.17Z" fill="#A75AFF"/>
</svg>
