<svg width="24" height="22" viewBox="0 0 24 22" fill="none" xmlns="http://www.w3.org/2000/svg">
<path d="M6.25 20H10.25C10.25 21.1 9.35 22 8.25 22C7.15 22 6.25 21.1 6.25 20ZM4.25 19H12.25V17H4.25V19ZM15.75 9.5C15.75 13.32 13.09 15.36 11.98 16H4.52C3.41 15.36 0.75 13.32 0.75 9.5C0.75 5.36 4.11 2 8.25 2C12.39 2 15.75 5.36 15.75 9.5ZM13.75 9.5C13.75 6.47 11.28 4 8.25 4C5.22 4 2.75 6.47 2.75 9.5C2.75 11.97 4.24 13.39 5.1 14H11.4C12.26 13.39 13.75 11.97 13.75 9.5ZM20.62 7.37L19.25 8L20.62 8.63L21.25 10L21.88 8.63L23.25 8L21.88 7.37L21.25 6L20.62 7.37ZM18.25 6L19.19 3.94L21.25 3L19.19 2.06L18.25 0L17.31 2.06L15.25 3L17.31 3.94L18.25 6Z" fill="#A75AFF"/>
</svg>
