<svg width="23" height="22" viewBox="0 0 23 22" fill="none" xmlns="http://www.w3.org/2000/svg">
<path d="M21 5.5H17.83L16 3.5H10V5.5H15.12L16.95 7.5H21V19.5H5V10.5H3V19.5C3 20.6 3.9 21.5 5 21.5H21C22.1 21.5 23 20.6 23 19.5V7.5C23 6.4 22.1 5.5 21 5.5ZM8 13.5C8 16.26 10.24 18.5 13 18.5C15.76 18.5 18 16.26 18 13.5C18 10.74 15.76 8.5 13 8.5C10.24 8.5 8 10.74 8 13.5ZM13 10.5C14.65 10.5 16 11.85 16 13.5C16 15.15 14.65 16.5 13 16.5C11.35 16.5 10 15.15 10 13.5C10 11.85 11.35 10.5 13 10.5ZM5 5.5H8V3.5H5V0.5H3V3.5H0V5.5H3V8.5H5V5.5Z" fill="#F9F9F9"/>
</svg>
