<svg width="48" height="49" viewBox="0 0 58 59" fill="none" xmlns="http://www.w3.org/2000/svg">
<path fill-rule="evenodd" clip-rule="evenodd" d="M0.25 29.5C0.25 13.6218 13.1218 0.75 29 0.75C36.625 0.75 43.9376 3.77901 49.3293 9.17068C54.721 14.5624 57.75 21.875 57.75 29.5C57.75 45.3782 44.8782 58.25 29 58.25C13.1218 58.25 0.25 45.3782 0.25 29.5ZM25.2913 40.1663L42.5412 22.9163C43.6686 21.7889 43.6686 19.9611 42.5412 18.8337C41.4139 17.7064 39.5861 17.7064 38.4587 18.8337L23.25 34.0713L19.5413 30.3337C18.812 29.6045 17.7491 29.3197 16.7528 29.5866C15.7567 29.8535 14.9785 30.6317 14.7116 31.6279C14.4447 32.6241 14.7295 33.687 15.4587 34.4163L21.2087 40.1663C21.7486 40.7105 22.4834 41.0167 23.25 41.0167C24.0166 41.0167 24.7514 40.7105 25.2913 40.1663Z" fill="#A75AFF"/>
</svg>
