<svg width="58" height="41" viewBox="0 0 58 41" fill="none" xmlns="http://www.w3.org/2000/svg">
<path d="M57.1643 10.5273C57.1643 8.94604 55.8705 7.65229 54.2893 7.65229H34.1643C32.583 7.65229 31.2893 8.94604 31.2893 10.5273C31.2893 12.1085 32.583 13.4023 34.1643 13.4023H54.2893C55.8705 13.4023 57.1643 12.1085 57.1643 10.5273ZM31.2893 33.5273C31.2893 35.1085 32.583 36.4023 34.1643 36.4023H54.2893C55.8705 36.4023 57.1643 35.1085 57.1643 33.5273C57.1643 31.946 55.8705 30.6523 54.2893 30.6523H34.1643C32.583 30.6523 31.2893 31.946 31.2893 33.5273ZM24.0155 0.83854C25.1368 1.95979 25.1368 3.77104 24.0155 4.89229L11.8543 17.111C10.733 18.2323 8.92175 18.2323 7.77175 17.111L1.67675 10.9873C0.555503 9.86604 0.555503 8.05479 1.67675 6.93354C2.798 5.81229 4.60925 5.81229 5.7305 6.93354L9.813 11.016L19.9905 0.83854C21.083 -0.25396 22.923 -0.25396 24.0155 0.83854ZM24.0443 23.8673C25.1655 24.9885 25.1655 26.7998 24.0443 27.921L11.883 40.1398C10.7618 41.261 8.9505 41.261 7.8005 40.1398L1.67675 33.9873C0.555503 32.866 0.555503 31.0548 1.67675 29.9335C2.798 28.8123 4.60925 28.8123 5.7305 29.9335L9.813 34.016L19.9905 23.8385C21.083 22.746 22.923 22.746 24.0443 23.8673Z" fill="#A75AFF"/>
</svg>
