<?xml version="1.0" encoding="utf-8"?>
<!-- Generator: Adobe Illustrator 23.0.4, SVG Export Plug-In . SVG Version: 6.00 Build 0)  -->
<svg version="1.1" id="레이어_1" xmlns="http://www.w3.org/2000/svg" xmlns:xlink="http://www.w3.org/1999/xlink" x="0px"
	 y="0px" viewBox="0 0 512 512" style="enable-background:new 0 0 512 512;" xml:space="preserve" width="25" height="25">

<path class="st0" d="M453.3,64H58.7C26.3,64,0,90.3,0,122.7v266.7C0,421.7,26.3,448,58.7,448h394.7c32.4,0,58.7-26.3,58.7-58.7
	V122.7C512,90.3,485.7,64,453.3,64z M160,149.3c29.4,0,53.3,23.9,53.3,53.3c0,29.4-23.9,53.3-53.3,53.3s-53.3-23.9-53.3-53.3
	C106.7,173.3,130.6,149.3,160,149.3z M256,346.7c0,8.8-7.2,16-16,16H80c-8.8,0-16-7.2-16-16V336c0-32.4,26.3-58.7,58.7-58.7h74.7
	c32.4,0,58.7,26.3,58.7,58.7V346.7z M432,362.7H314.7c-8.8,0-16-7.2-16-16s7.2-16,16-16H432c8.8,0,16,7.2,16,16
	S440.8,362.7,432,362.7z M432,277.3H314.7c-8.8,0-16-7.2-16-16s7.2-16,16-16H432c8.8,0,16,7.2,16,16S440.8,277.3,432,277.3z
	 M432,192H314.7c-8.8,0-16-7.2-16-16s7.2-16,16-16H432c8.8,0,16,7.2,16,16S440.8,192,432,192z" fill="#9C5EF8"/>
</svg>
