<svg width="20" height="22" viewBox="0 0 20 22" fill="none" xmlns="http://www.w3.org/2000/svg">
<path d="M12 9.5H10V7.5H12V9.5ZM12 5.5H10V0.5H12V5.5ZM6 17.5C4.9 17.5 4.01 18.4 4.01 19.5C4.01 20.6 4.9 21.5 6 21.5C7.1 21.5 8 20.6 8 19.5C8 18.4 7.1 17.5 6 17.5ZM16 17.5C14.9 17.5 14.01 18.4 14.01 19.5C14.01 20.6 14.9 21.5 16 21.5C17.1 21.5 18 20.6 18 19.5C18 18.4 17.1 17.5 16 17.5ZM7.1 12.5H14.55C15.3 12.5 15.96 12.09 16.3 11.47L20 4.46L18.25 3.5L14.55 10.5H7.53L3.27 1.5H0V3.5H2L5.6 11.09L4.25 13.53C3.52 14.87 4.48 16.5 6 16.5H18V14.5H6L7.1 12.5Z" fill="black"/>
</svg>
