<svg width="19" height="19" viewBox="0 0 19 19" fill="none" xmlns="http://www.w3.org/2000/svg">
<path d="M16.0027 10.3575C16.0377 10.0775 16.0639 9.7975 16.0639 9.5C16.0639 9.2025 16.0377 8.9225 16.0027 8.6425L17.8489 7.19875C18.0152 7.0675 18.0589 6.83125 17.9539 6.63875L16.2039 3.61125C16.1252 3.47125 15.9764 3.3925 15.8189 3.3925C15.7664 3.3925 15.7139 3.40125 15.6702 3.41875L13.4914 4.29375C13.0364 3.94375 12.5464 3.655 12.0127 3.43625L11.6802 1.1175C11.6539 0.9075 11.4702 0.75 11.2514 0.75H7.75145C7.5327 0.75 7.34895 0.9075 7.3227 1.1175L6.9902 3.43625C6.45645 3.655 5.96645 3.9525 5.51145 4.29375L3.3327 3.41875C3.2802 3.40125 3.2277 3.3925 3.1752 3.3925C3.02645 3.3925 2.8777 3.47125 2.79895 3.61125L1.04895 6.63875C0.935196 6.83125 0.987696 7.0675 1.15395 7.19875L3.0002 8.6425C2.9652 8.9225 2.93895 9.21125 2.93895 9.5C2.93895 9.78875 2.9652 10.0775 3.0002 10.3575L1.15395 11.8013C0.987696 11.9325 0.943946 12.1688 1.04895 12.3612L2.79895 15.3888C2.8777 15.5287 3.02645 15.6075 3.18395 15.6075C3.23645 15.6075 3.28895 15.5988 3.3327 15.5813L5.51145 14.7063C5.96645 15.0563 6.45645 15.345 6.9902 15.5638L7.3227 17.8825C7.34895 18.0925 7.5327 18.25 7.75145 18.25H11.2514C11.4702 18.25 11.6539 18.0925 11.6802 17.8825L12.0127 15.5638C12.5464 15.345 13.0364 15.0475 13.4914 14.7063L15.6702 15.5813C15.7227 15.5988 15.7752 15.6075 15.8277 15.6075C15.9764 15.6075 16.1252 15.5287 16.2039 15.3888L17.9539 12.3612C18.0589 12.1688 18.0152 11.9325 17.8489 11.8013L16.0027 10.3575ZM14.2702 8.86125C14.3052 9.1325 14.3139 9.31625 14.3139 9.5C14.3139 9.68375 14.2964 9.87625 14.2702 10.1388L14.1477 11.1275L14.9264 11.74L15.8714 12.475L15.2589 13.5338L14.1477 13.0875L13.2377 12.72L12.4502 13.315C12.0739 13.595 11.7152 13.805 11.3564 13.9538L10.4289 14.33L10.2889 15.3187L10.1139 16.5H8.88895L8.5827 14.33L7.6552 13.9538C7.27895 13.7963 6.92895 13.595 6.57895 13.3325L5.7827 12.72L4.8552 13.0963L3.74395 13.5425L3.13145 12.4837L4.07645 11.7487L4.8552 11.1362L4.7327 10.1475C4.70645 9.87625 4.68895 9.675 4.68895 9.5C4.68895 9.325 4.70645 9.12375 4.7327 8.86125L4.8552 7.8725L4.07645 7.26L3.13145 6.525L3.74395 5.46625L4.8552 5.9125L5.7652 6.28L6.5527 5.685C6.92895 5.405 7.2877 5.195 7.64645 5.04625L8.57395 4.67L8.71395 3.68125L8.88895 2.5H10.1052L10.4114 4.67L11.3389 5.04625C11.7152 5.20375 12.0652 5.405 12.4152 5.6675L13.2114 6.28L14.1389 5.90375L15.2502 5.4575L15.8627 6.51625L14.9264 7.26L14.1477 7.8725L14.2702 8.86125ZM9.50145 6C7.5677 6 6.00145 7.56625 6.00145 9.5C6.00145 11.4338 7.5677 13 9.50145 13C11.4352 13 13.0014 11.4338 13.0014 9.5C13.0014 7.56625 11.4352 6 9.50145 6ZM9.50145 11.25C8.53895 11.25 7.75145 10.4625 7.75145 9.5C7.75145 8.5375 8.53895 7.75 9.50145 7.75C10.4639 7.75 11.2514 8.5375 11.2514 9.5C11.2514 10.4625 10.4639 11.25 9.50145 11.25Z" fill="#252525"/>
</svg>
